<?xml version="1.0" encoding="UTF-8"?>
<svg id="Layer_1" xmlns="http://www.w3.org/2000/svg" viewBox="0 0 1749.14 623.31">
  <defs>
    <style>
      .cls-1 {
        fill: #ffffff;
      }
    </style>
  </defs>
  <path class="cls-1" d="M682.61,623.31c-6.49-5.18-8.14-12.14-8.14-20.11,.08-194.25,.06-388.51,.09-582.76,0-2.79,.13-5.63,.7-8.34,.48-2.28,1.45-4.54,2.63-6.57,4.31-7.39,14.18-7.32,18.66-.08,2.21,3.58,3.06,7.48,3.31,11.58,.08,1.26,.03,2.52,.03,3.78,0,193.97,0,387.95,0,581.92,0,1.82-.03,3.64-.13,5.46-.33,6.23-3.31,11.1-7.89,15.12h-9.25Z" />
  <path class="cls-1" d="M.63,614.33C-.39,608.44-.1,12.29,.98,8.54c1.86,0,3.92,0,5.97,0,116.46,.07,232.91,.13,349.37,.21,38.54,.03,77.08,.03,115.62,.13,42.46,.1,84.92,.29,127.38,.44,5.78,.02,5.8,.04,5.8,5.84,0,197.64,0,395.29,0,592.93,0,5.75-.02,5.77-5.78,5.78-128.37,.18-256.74,.37-385.1,.54-69.09,.09-138.18,.13-207.27,.18-2.06,0-4.12-.16-6.34-.26ZM303.38,49.63c0,.17,0,.34,0,.51-13.87,0-27.75,0-41.62,0-70.91,.04-141.83,.09-212.74,.14-1.54,0-3.08,.01-4.62,.09-1.65,.09-2.58,1.02-2.65,2.67-.08,1.82-.09,3.64-.09,5.46,0,168.92,0,337.84,0,506.75,0,7.71-1.07,7.7,7.8,7.71,114.78,.15,229.56,.31,344.34,.49,54.66,.09,109.31,.23,163.97,.34,7.14,.01,7.33-.17,7.33-7.29,0-169.76,0-339.52,0-509.28q0-7.62-7.77-7.62c-84.65,0-169.3,0-253.95,0Z" />
  <path class="cls-1" d="M769.31,19.89c1.98-.09,3.49-.21,5-.22,23.82-.1,47.65,.17,71.46-.34,38.38-.83,71.64,29,77.75,65.44,.71,4.26,1.06,8.64,1.07,12.96,.08,38.82,.14,77.64,.02,116.46-.12,40.17-28.85,74.33-68.46,81.45-5.07,.91-10.3,1.21-15.46,1.28-22.14,.3-44.27,.4-66.41,.58-1.12,0-2.24-.01-3.36,0-1.71,.01-2.59-.83-2.62-2.55-.02-1.12-.05-2.24-.04-3.36,.18-84.23,.37-168.46,.56-252.69,.01-4.9,.08-9.81,.17-14.71,.02-1.24,.19-2.48,.34-4.3Zm47.87,47.45c-.94,7.19-1.2,177.56-.29,181.24,.44,.12,.96,.39,1.48,.39,8.4,.02,16.81,.07,25.21-.06,2.22-.03,4.46-.48,6.63-1.01,15.64-3.85,26.72-18,26.75-34.5,.08-38.26,.08-76.52,0-114.77-.04-18.3-14.13-32.18-32.35-32.04-8.12,.06-16.25,.3-24.37,.48-.95,.02-1.9,.17-3.07,.28Z" />
  <path class="cls-1" d="M1143.57,201.56c-1.58,0-3.09,0-4.6,0-6.87,0-13.73,.03-20.6-.01-3.93-.02-4.21-.27-4.22-3.93-.03-13.45-.03-26.91,0-40.36,0-3.56,.24-3.89,3.34-3.89,23.96-.03,47.92-.01,71.87,0,.55,0,1.09,.17,2.06,.34,.15,1.16,.44,2.35,.44,3.54,.02,22.28,.29,44.57-.08,66.84-.56,34.13-24.23,65.56-56.17,74.33-49.54,13.6-87.66-19.39-96.98-56.75-1.55-6.19-2.4-12.72-2.44-19.1-.21-43.02-.25-86.04-.06-129.07,.15-35.56,25.16-67.69,59.56-75.94,46.94-11.26,87.42,20.49,94.74,61.3,2,11.13,1.38,22.34,1.37,33.53,0,.38-.27,.77-.41,1.11-3.02,.94-41.14,1.2-46.85,.27-.1-1.52-.25-3.14-.31-4.77-.2-5.88-.06-11.78-.64-17.62-.89-8.99-4.8-16.62-11.73-22.54-10.11-8.64-24.43-8.9-34.81-.6-8.73,6.98-13.3,16.05-13.29,27.33,0,17.94,0,35.88,0,53.81,0,23.54,0,47.09,0,70.63,0,8.38,2.1,16.04,7.58,22.61,7.59,9.1,17.29,12.85,28.84,10.45,11.75-2.45,19.01-10.2,22.51-21.49,.86-2.78,1.3-5.77,1.41-8.68,.22-6.16,.11-12.33,.08-18.49,0-.8-.33-1.6-.59-2.83Z" />
  <path class="cls-1" d="M769.33,330.82h46.6c.1,1.87,.26,3.61,.27,5.36,.02,28.31,0,56.62,.02,84.94,0,1.61,.1,3.21,.16,4.82,.32,.11,.65,.22,.97,.33,.91-1.29,1.86-2.57,2.74-3.89,18.98-28.77,38.03-57.49,56.84-86.37,2.6-3.99,5.34-5.61,10.14-5.47,12.18,.35,24.38,.12,36.57,.12h5.46c-1.12,1.95-1.88,3.36-2.72,4.71-21.12,33.72-42.26,67.42-63.35,101.16-4.29,6.86-4.12,4.49-.77,11.62,24.31,51.71,48.65,103.4,72.97,155.1,.64,1.36,1.18,2.77,1.97,4.66-1.78,.13-3.11,.3-4.44,.3-14.43,.02-28.87-.09-43.3,.09-3.33,.04-4.94-1.13-6.3-4.11-16.55-36.32-33.22-72.58-49.88-108.85-.87-1.88-1.82-3.73-3.02-6.17-1.12,1.59-1.95,2.66-2.67,3.79-3.18,4.95-6.25,9.98-9.53,14.86-1.56,2.32-2.16,4.69-2.16,7.47,.07,29.01,.05,58.03,.03,87.04,0,1.78-.19,3.56-.31,5.61h-46.96c-.14-1.9-.42-3.79-.41-5.67,.12-62.37,.26-124.74,.42-187.11,.07-26.07,.17-52.14,.29-78.21,0-1.91,.23-3.83,.37-6.12Z" />
  <path class="cls-1" d="M1591.37,297.21c-1.67,.12-2.89,.29-4.11,.3-12.89,.02-25.79,.03-38.68,0-4.06,0-4.2-.13-4.8-4.09-1.15-7.47-2.24-14.95-3.39-22.43-.21-1.38-.57-2.73-.91-4.35h-54.58c-.34,1.53-.79,3.11-1.04,4.72-1.16,7.47-2.24,14.95-3.4,22.43-.53,3.43-.82,3.7-4.29,3.71-13.17,.03-26.35,.03-39.52,0-3.68,0-3.97-.39-3.35-3.85,5.61-31.14,11.25-62.28,16.86-93.42,5.19-28.8,10.36-57.6,15.55-86.4,5.14-28.52,10.3-57.04,15.45-85.56,.37-2.07,.83-4.12,1.18-6.19,.28-1.67,1.24-2.42,2.89-2.4,.7,.01,1.4-.01,2.1-.01,17.24,0,34.47,0,51.71,0,4.45,0,4.54,.15,5.31,4.58,5.79,33.38,11.62,66.76,17.39,100.14,5.47,31.59,10.87,63.2,16.33,94.79,4.26,24.7,8.57,49.39,12.84,74.08,.2,1.18,.27,2.39,.45,3.93Zm-78.03-198.15l-1.28,.11c-.17,1.19-.37,2.39-.51,3.58-.45,3.61-.78,7.24-1.33,10.83-1.45,9.4-2.99,18.79-4.5,28.18-4.12,25.7-8.24,51.39-12.33,77.09-.25,1.58-.24,3.2-.38,5.22,13.04-.02,25.56,.07,38.71-.06-6.21-42.09-11.99-83.57-18.38-124.96Z" />
  <path class="cls-1" d="M1100.27,607.93h-46.49c-.58-3.2-1.22-6.43-1.73-9.68-.93-5.95-1.83-11.9-2.63-17.86-.28-2.07-.9-3.38-3.32-3.37-16.81,.07-33.62,.06-50.43,.1-.4,0-.79,.22-1.72,.5-.67,4.16-1.37,8.53-2.06,12.9-.78,4.98-1.59,9.95-2.3,14.94-.26,1.83-1.09,2.75-2.99,2.75-14.28-.07-28.57-.11-42.85-.18-.25,0-.49-.23-1.21-.58,.1-1.53,.06-3.31,.37-5.02,7.5-41.74,15.03-83.47,22.57-125.2,7.99-44.21,16.01-88.41,24.02-132.62,.65-3.58,1.25-7.17,1.93-10.75,.18-.94,.55-1.84,.89-2.95h60.56c15.82,91.24,31.61,182.36,47.38,273.48,.18,1.05,.02,2.16,.02,3.54Zm-59.4-73.65c-6.15-41.67-11.95-83.45-19.06-125.07-6.62,41.73-13.24,83.46-19.85,125.14,4.26,1.02,35.14,.96,38.91-.07Z" />
  <path class="cls-1" d="M1430.17,607.97h-46.59c-.37-1.26-.85-2.41-1.03-3.61-1.2-7.75-2.35-15.5-3.49-23.26-.57-3.89-.65-4.06-4.35-4.07-15.83-.03-31.67-.02-47.5,0-1.09,0-2.18,.21-3.68,.36-1.59,10.13-3.16,20.16-4.71,29.99-3.66,1.02-41.99,1.19-46.39,.32-.09-.1-.2-.2-.27-.31-.07-.12-.15-.26-.14-.39,.04-.83,.01-1.68,.16-2.49,16.3-90.52,32.62-181.03,48.95-271.54,.07-.4,.25-.8,.42-1.17,.12-.25,.32-.45,.82-1.13h3.8c17.24,0,34.47,0,51.71,0,4.41,0,4.48,.02,5.26,4.48,4.15,23.72,8.26,47.44,12.38,71.16,4.36,25.1,8.7,50.21,13.05,75.31,4.33,24.97,8.65,49.93,12.98,74.9,2.67,15.45,5.35,30.9,8,46.35,.26,1.5,.38,3.01,.63,5.09Zm-98.66-73.48c1.13,.27,1.66,.51,2.19,.51,11.48,.03,22.96,.04,34.44,0,.72,0,1.43-.52,2.31-.86-6.23-41.82-11.95-83.47-19.06-124.93-6.6,41.64-13.21,83.28-19.87,125.28Z" />
  <path class="cls-1" d="M1390.64,297.25h-46.96c-.12-2.28-.32-4.32-.32-6.37-.02-72.17-.01-144.35-.01-216.52,0-2.07,0-4.15,0-6.69-4.88-.62-9.32-.26-13.73-.33-4.34-.06-8.69-.01-13.03-.01h-26.6c-.3-1.26-.7-2.17-.69-3.08,.17-14.29,.39-28.58,.61-42.87,0-.27,.15-.54,.38-1.34,1.54-.11,3.28-.35,5.02-.35,27.46-.02,54.92-.02,82.38-.02,20.46,0,40.91,0,61.37,.01,1.64,0,3.27,.16,5.16,.27v47.39h-53.38c-.11,2.49-.27,4.4-.27,6.31,.16,64.04,.34,128.09,.51,192.13,.02,8.83,.05,17.66,.01,26.49,0,1.62-.28,3.23-.44,4.96Z" />
  <path class="cls-1" d="M1665.27,249.04h83.23c1.04,4.27,.47,8.33,.57,12.31,.1,3.92,.02,7.85,.02,11.77s.08,8.13-.02,12.19c-.1,3.87,.51,7.8-.56,11.96-1.5,.09-2.86,.24-4.22,.24-40.76,.01-81.53,.01-122.29,0-.84,0-1.68,0-2.52-.04-1.34-.05-2.09-.79-2.17-2.08-.1-1.54-.1-3.08-.09-4.62,.18-88.55,.37-177.11,.55-265.66,0-1.52,0-3.05,0-4.87,1.39-.22,2.45-.54,3.5-.54,13.45-.03,26.9-.05,40.34,0,3.49,0,3.74,.31,3.78,3.91,.04,3.5,0,7.01,0,10.51-.06,54.23-.11,108.45-.2,162.68-.02,15.41-.16,30.83-.21,46.24,0,1.78,.17,3.57,.29,6.01Z" />
  <path class="cls-1" d="M1127.75,330.94h46.41c.12,1.75,.35,3.5,.35,5.25,0,22-.05,44-.07,66-.06,50.45-.11,100.9-.16,151.35,0,1.8,0,3.6,0,5.9,1.94,.1,3.55,.26,5.16,.26,24.52,.02,49.04,0,73.55,.02,1.64,0,3.28,.18,4.8,.26,.96,3.73,1.03,43.65,.17,47.56-3.11,.8-124.86,1.08-130.46,.31-.13-.12-.24-.21-.34-.31-.09-.1-.23-.2-.25-.32-.11-.83-.28-1.66-.28-2.49,.08-90.53,.17-181.06,.27-271.58,0-.41,.11-.83,.23-1.23,.08-.26,.28-.47,.6-.99Z" />
  <path class="cls-1" d="M957.72,20.34c4.36-.96,43.18-.86,46.86,.17,0,1.78,0,3.71,0,5.64,.13,67.56,.26,135.13,.4,202.69,.04,20.61,.11,41.21,.16,61.82,0,.84,.01,1.68,0,2.52-.07,4.15-.2,4.33-4.24,4.34-8.55,.03-17.1,.01-25.65,0-4.9,0-9.81,.05-14.71-.02-3.24-.04-3.49-.37-3.59-3.69-.03-.98,0-1.96,0-2.94,.07-72.61,.13-145.22,.22-217.83,.02-15.98,.13-31.96,.22-47.94,0-1.63,.22-3.26,.34-4.76Z" />
  <path class="cls-1" d="M1221.58,19.97h47.01c0,2.18,0,4.09,0,6,.14,82.25,.29,164.5,.44,246.74,.01,6.59,.1,13.17,.11,19.76,0,5.02-.05,5.04-5.24,5.04-12.61,0-25.21,0-37.82,0-5.11,0-5.14-.02-5.13-5.1,.04-46.66,.09-93.32,.14-139.98,.04-42.18,.08-84.35,.14-126.53,0-1.91,.23-3.82,.36-5.95Z" />
  <path class="cls-1" d="M113.13,255.2c0-42.33,0-84.66,0-126.99q0-6.39,6.57-6.4c84.36,.1,168.72,.21,253.08,.31,7.41,0,7.01-.41,7.02,7.18,0,32.94,0,65.88,0,98.82,0,1.4-.04,2.81,.04,4.2,.17,3.09,.44,3.4,3.51,4.32,7.49,2.24,15.15,4.01,22.43,6.8,22.56,8.64,41.47,22.48,56.82,41.19,9.96,12.14,17.49,25.66,22.69,40.43,3.31,9.38,5.82,19,6.36,29.01,.33,6.29,1.12,12.6,.86,18.86-2.16,52.59-34.44,97.06-79.52,117.03-21.69,9.61-44.25,13.32-67.99,10.71-23.28-2.56-44.21-10.86-63.02-24.45-21.89-15.81-37.77-36.49-47.38-61.77-2.72-7.16-4.47-14.69-6.67-22.04-.96-3.23-1.29-3.51-4.64-3.65-1.68-.07-3.36-.03-5.04-.03-32.79,.04-65.58,.09-98.37,.12q-6.72,0-6.73-6.68c0-42.33,0-84.66,0-126.99Zm41.42,.15c0,28.3,0,56.61,0,84.91,0,7.07,.02,7.1,6.95,7.11,56.87,.08,113.75,.16,170.62,.24,1.12,0,2.24,0,3.36-.06,2.16-.12,3.33-1.27,3.44-3.45,.04-.84,.05-1.68,.05-2.52,0-57.59,0-115.18,0-172.76,0-5.28-.55-5.78-5.77-5.84-.42,0-.84,0-1.26,0-56.87,.07-113.75,.14-170.62,.22-6.74,0-6.76,.04-6.76,6.83,0,28.44,0,56.89,0,85.33Zm225.25,78.59c0,15.97,0,31.94,0,47.91,0,1.26-.04,2.52-.05,3.78-.02,1.89-.97,2.83-2.85,2.85-2.1,.02-4.2,.06-6.3,.06-31.51,.05-63.03,.09-94.54,.14-5.43,.01-6.17,1.07-4.39,6.28,1.08,3.18,2.07,6.4,3.43,9.46,11.14,25.08,29.36,42.53,55.55,51.39,15.91,5.38,32.13,6.16,48.45,2.66,14.27-3.06,27.3-9.1,38.6-18.49,22.06-18.32,33.41-41.94,34.28-70.52,.16-5.27-.71-10.58-1.36-15.85-1.43-11.57-5.6-22.25-11.61-32.13-12.27-20.16-29.64-33.99-52.2-41.2-5.94-1.9-6.98-1.26-6.98,4.88-.01,16.25,0,32.5,0,48.75Z" />
</svg>